<mxfile host="app.diagrams.net" modified="2020-10-22T14:25:01.128Z" agent="5.0 (Windows NT 10.0; Win64; x64) AppleWebKit/537.36 (KHTML, like Gecko) Chrome/86.0.4240.75 Safari/537.36" etag="MF_3S_T9taocdELlXKCd" version="13.8.1" type="github">
  <diagram id="eA321_YY5obu5FZS0WYI" name="第 1 页">
    <mxGraphModel dx="1422" dy="832" grid="0" gridSize="10" guides="1" tooltips="1" connect="1" arrows="1" fold="1" page="1" pageScale="1" pageWidth="827" pageHeight="1169" math="0" shadow="0">
      <root>
        <mxCell id="0" />
        <mxCell id="1" parent="0" />
        <mxCell id="Bpl0cMvDk8CUBROf8KLS-9" value="" style="shape=ext;double=1;rounded=1;whiteSpace=wrap;html=1;shadow=0;glass=0;sketch=1;disableMultiStroke=1;disableMultiStrokeFill=0;gradientColor=none;fontColor=#CC0000;" vertex="1" parent="1">
          <mxGeometry x="385" y="1590" width="550" height="301" as="geometry" />
        </mxCell>
        <mxCell id="wJYl4lRXU7Mfr5Yau0XG-2" value="" style="rounded=1;whiteSpace=wrap;html=1;fillColor=#dae8fc;strokeColor=#6c8ebf;" parent="1" vertex="1">
          <mxGeometry x="105" y="270" width="220" height="330" as="geometry" />
        </mxCell>
        <mxCell id="wJYl4lRXU7Mfr5Yau0XG-3" value="&lt;font size=&quot;1&quot;&gt;&lt;b style=&quot;font-size: 23px&quot;&gt;Thread - 01&lt;/b&gt;&lt;/font&gt;" style="text;html=1;align=center;verticalAlign=middle;resizable=0;points=[];autosize=1;" parent="1" vertex="1">
          <mxGeometry x="140" y="310" width="140" height="20" as="geometry" />
        </mxCell>
        <mxCell id="wJYl4lRXU7Mfr5Yau0XG-20" value="" style="group" parent="1" vertex="1" connectable="0">
          <mxGeometry x="120" y="360" width="230" height="205" as="geometry" />
        </mxCell>
        <mxCell id="wJYl4lRXU7Mfr5Yau0XG-19" value="" style="group" parent="wJYl4lRXU7Mfr5Yau0XG-20" vertex="1" connectable="0">
          <mxGeometry width="230" height="205" as="geometry" />
        </mxCell>
        <mxCell id="wJYl4lRXU7Mfr5Yau0XG-8" value="" style="rounded=1;whiteSpace=wrap;html=1;fillColor=#fff2cc;strokeColor=#d6b656;" parent="wJYl4lRXU7Mfr5Yau0XG-19" vertex="1">
          <mxGeometry x="1.5127432173198703" width="189.09290216497664" height="205" as="geometry" />
        </mxCell>
        <mxCell id="wJYl4lRXU7Mfr5Yau0XG-10" value="" style="endArrow=none;html=1;entryX=-0.008;entryY=0.305;entryDx=0;entryDy=0;entryPerimeter=0;" parent="wJYl4lRXU7Mfr5Yau0XG-19" edge="1">
          <mxGeometry width="50" height="50" relative="1" as="geometry">
            <mxPoint x="190.6056453822965" y="52" as="sourcePoint" />
            <mxPoint y="52.09999999999991" as="targetPoint" />
          </mxGeometry>
        </mxCell>
        <mxCell id="wJYl4lRXU7Mfr5Yau0XG-11" value="" style="endArrow=none;html=1;entryX=-0.008;entryY=0.305;entryDx=0;entryDy=0;entryPerimeter=0;" parent="wJYl4lRXU7Mfr5Yau0XG-19" edge="1">
          <mxGeometry width="50" height="50" relative="1" as="geometry">
            <mxPoint x="190.6056453822965" y="110" as="sourcePoint" />
            <mxPoint y="110.09999999999991" as="targetPoint" />
          </mxGeometry>
        </mxCell>
        <mxCell id="wJYl4lRXU7Mfr5Yau0XG-12" value="" style="endArrow=none;html=1;entryX=-0.008;entryY=0.305;entryDx=0;entryDy=0;entryPerimeter=0;" parent="wJYl4lRXU7Mfr5Yau0XG-19" edge="1">
          <mxGeometry width="50" height="50" relative="1" as="geometry">
            <mxPoint x="190.6056453822965" y="160" as="sourcePoint" />
            <mxPoint y="160.0999999999999" as="targetPoint" />
          </mxGeometry>
        </mxCell>
        <mxCell id="wJYl4lRXU7Mfr5Yau0XG-21" value="&lt;font style=&quot;font-size: 20px&quot;&gt;&lt;b&gt;ThreadLocalMap&lt;/b&gt;&lt;/font&gt;" style="text;html=1;align=center;verticalAlign=middle;resizable=0;points=[];autosize=1;" parent="wJYl4lRXU7Mfr5Yau0XG-19" vertex="1">
          <mxGeometry x="11.058388599616443" y="20" width="170" height="20" as="geometry" />
        </mxCell>
        <mxCell id="wJYl4lRXU7Mfr5Yau0XG-22" value="" style="endArrow=classic;html=1;exitX=0.653;exitY=1.2;exitDx=0;exitDy=0;exitPerimeter=0;fillColor=#f8cecc;strokeColor=#B85450;strokeWidth=5;" parent="1" source="wJYl4lRXU7Mfr5Yau0XG-21" target="wJYl4lRXU7Mfr5Yau0XG-26" edge="1">
          <mxGeometry width="50" height="50" relative="1" as="geometry">
            <mxPoint x="250" y="420" as="sourcePoint" />
            <mxPoint x="270.37966377526504" y="610" as="targetPoint" />
          </mxGeometry>
        </mxCell>
        <mxCell id="wJYl4lRXU7Mfr5Yau0XG-32" value="" style="rounded=1;whiteSpace=wrap;html=1;fillColor=#dae8fc;strokeColor=#6c8ebf;" parent="1" vertex="1">
          <mxGeometry x="447" y="270" width="220" height="330" as="geometry" />
        </mxCell>
        <mxCell id="wJYl4lRXU7Mfr5Yau0XG-33" value="&lt;font size=&quot;1&quot;&gt;&lt;b style=&quot;font-size: 23px&quot;&gt;Thread - 02&lt;/b&gt;&lt;/font&gt;" style="text;html=1;align=center;verticalAlign=middle;resizable=0;points=[];autosize=1;" parent="1" vertex="1">
          <mxGeometry x="486" y="309" width="133" height="22" as="geometry" />
        </mxCell>
        <mxCell id="wJYl4lRXU7Mfr5Yau0XG-34" value="" style="group" parent="1" vertex="1" connectable="0">
          <mxGeometry x="462" y="360" width="230" height="205" as="geometry" />
        </mxCell>
        <mxCell id="wJYl4lRXU7Mfr5Yau0XG-35" value="" style="group" parent="wJYl4lRXU7Mfr5Yau0XG-34" vertex="1" connectable="0">
          <mxGeometry width="230" height="205" as="geometry" />
        </mxCell>
        <mxCell id="wJYl4lRXU7Mfr5Yau0XG-36" value="" style="rounded=1;whiteSpace=wrap;html=1;fillColor=#fff2cc;strokeColor=#d6b656;" parent="wJYl4lRXU7Mfr5Yau0XG-35" vertex="1">
          <mxGeometry x="1.5127432173198703" width="189.09290216497664" height="205" as="geometry" />
        </mxCell>
        <mxCell id="wJYl4lRXU7Mfr5Yau0XG-37" value="" style="endArrow=none;html=1;entryX=-0.008;entryY=0.305;entryDx=0;entryDy=0;entryPerimeter=0;" parent="wJYl4lRXU7Mfr5Yau0XG-35" edge="1">
          <mxGeometry width="50" height="50" relative="1" as="geometry">
            <mxPoint x="190.6056453822965" y="52" as="sourcePoint" />
            <mxPoint y="52.09999999999991" as="targetPoint" />
          </mxGeometry>
        </mxCell>
        <mxCell id="wJYl4lRXU7Mfr5Yau0XG-38" value="" style="endArrow=none;html=1;entryX=-0.008;entryY=0.305;entryDx=0;entryDy=0;entryPerimeter=0;" parent="wJYl4lRXU7Mfr5Yau0XG-35" edge="1">
          <mxGeometry width="50" height="50" relative="1" as="geometry">
            <mxPoint x="190.6056453822965" y="110" as="sourcePoint" />
            <mxPoint y="110.09999999999991" as="targetPoint" />
          </mxGeometry>
        </mxCell>
        <mxCell id="wJYl4lRXU7Mfr5Yau0XG-39" value="" style="endArrow=none;html=1;entryX=-0.008;entryY=0.305;entryDx=0;entryDy=0;entryPerimeter=0;" parent="wJYl4lRXU7Mfr5Yau0XG-35" edge="1">
          <mxGeometry width="50" height="50" relative="1" as="geometry">
            <mxPoint x="190.6056453822965" y="160" as="sourcePoint" />
            <mxPoint y="160.0999999999999" as="targetPoint" />
          </mxGeometry>
        </mxCell>
        <mxCell id="wJYl4lRXU7Mfr5Yau0XG-40" value="&lt;font style=&quot;font-size: 20px&quot;&gt;&lt;b&gt;ThreadLocalMap&lt;/b&gt;&lt;/font&gt;" style="text;html=1;align=center;verticalAlign=middle;resizable=0;points=[];autosize=1;" parent="wJYl4lRXU7Mfr5Yau0XG-35" vertex="1">
          <mxGeometry x="11.058388599616443" y="20" width="170" height="20" as="geometry" />
        </mxCell>
        <mxCell id="wJYl4lRXU7Mfr5Yau0XG-41" value="" style="endArrow=classic;html=1;exitX=0.653;exitY=1.2;exitDx=0;exitDy=0;exitPerimeter=0;fillColor=#f8cecc;strokeColor=#B85450;strokeWidth=5;entryX=0.523;entryY=0.029;entryDx=0;entryDy=0;entryPerimeter=0;" parent="1" source="wJYl4lRXU7Mfr5Yau0XG-40" target="wJYl4lRXU7Mfr5Yau0XG-43" edge="1">
          <mxGeometry width="50" height="50" relative="1" as="geometry">
            <mxPoint x="592" y="420" as="sourcePoint" />
            <mxPoint x="612.379663775265" y="610" as="targetPoint" />
          </mxGeometry>
        </mxCell>
        <mxCell id="wJYl4lRXU7Mfr5Yau0XG-25" value="" style="shape=table;html=1;whiteSpace=wrap;startSize=0;container=1;collapsible=0;childLayout=tableLayout;fontSize=18;fontStyle=1" parent="1" vertex="1">
          <mxGeometry x="190" y="640" width="220" height="70" as="geometry" />
        </mxCell>
        <mxCell id="wJYl4lRXU7Mfr5Yau0XG-26" value="" style="shape=partialRectangle;html=1;whiteSpace=wrap;collapsible=0;dropTarget=0;pointerEvents=0;fillColor=none;top=0;left=0;bottom=0;right=0;points=[[0,0.5],[1,0.5]];portConstraint=eastwest;fontSize=18;fontStyle=1" parent="wJYl4lRXU7Mfr5Yau0XG-25" vertex="1">
          <mxGeometry width="220" height="35" as="geometry" />
        </mxCell>
        <mxCell id="wJYl4lRXU7Mfr5Yau0XG-27" value="key" style="shape=partialRectangle;html=1;whiteSpace=wrap;connectable=0;overflow=hidden;fillColor=#e1d5e7;top=0;left=0;bottom=0;right=0;fontSize=18;fontStyle=1;strokeColor=#9673a6;" parent="wJYl4lRXU7Mfr5Yau0XG-26" vertex="1">
          <mxGeometry width="110" height="35" as="geometry" />
        </mxCell>
        <mxCell id="wJYl4lRXU7Mfr5Yau0XG-28" value="value" style="shape=partialRectangle;html=1;whiteSpace=wrap;connectable=0;overflow=hidden;fillColor=#e1d5e7;top=0;left=0;bottom=0;right=0;fontSize=18;fontStyle=1;strokeColor=#9673a6;" parent="wJYl4lRXU7Mfr5Yau0XG-26" vertex="1">
          <mxGeometry x="110" width="110" height="35" as="geometry" />
        </mxCell>
        <mxCell id="wJYl4lRXU7Mfr5Yau0XG-29" value="" style="shape=partialRectangle;html=1;whiteSpace=wrap;collapsible=0;dropTarget=0;pointerEvents=0;fillColor=none;top=0;left=0;bottom=0;right=0;points=[[0,0.5],[1,0.5]];portConstraint=eastwest;fontSize=18;fontStyle=1" parent="wJYl4lRXU7Mfr5Yau0XG-25" vertex="1">
          <mxGeometry y="35" width="220" height="35" as="geometry" />
        </mxCell>
        <mxCell id="wJYl4lRXU7Mfr5Yau0XG-30" value="ThreadLocal" style="shape=partialRectangle;html=1;whiteSpace=wrap;connectable=0;overflow=hidden;fillColor=#d5e8d4;top=0;left=0;bottom=0;right=0;fontSize=18;fontStyle=1;strokeColor=#82b366;" parent="wJYl4lRXU7Mfr5Yau0XG-29" vertex="1">
          <mxGeometry width="110" height="35" as="geometry" />
        </mxCell>
        <mxCell id="wJYl4lRXU7Mfr5Yau0XG-31" value="value1" style="shape=partialRectangle;html=1;whiteSpace=wrap;connectable=0;overflow=hidden;fillColor=#d5e8d4;top=0;left=0;bottom=0;right=0;fontSize=18;fontStyle=1;strokeColor=#82b366;" parent="wJYl4lRXU7Mfr5Yau0XG-29" vertex="1">
          <mxGeometry x="110" width="110" height="35" as="geometry" />
        </mxCell>
        <mxCell id="wJYl4lRXU7Mfr5Yau0XG-49" value="" style="rounded=1;whiteSpace=wrap;html=1;fillColor=#dae8fc;strokeColor=#6c8ebf;" parent="1" vertex="1">
          <mxGeometry x="770" y="270" width="220" height="330" as="geometry" />
        </mxCell>
        <mxCell id="wJYl4lRXU7Mfr5Yau0XG-50" value="&lt;font size=&quot;1&quot;&gt;&lt;b style=&quot;font-size: 23px&quot;&gt;Thread - 03&lt;/b&gt;&lt;/font&gt;" style="text;html=1;align=center;verticalAlign=middle;resizable=0;points=[];autosize=1;" parent="1" vertex="1">
          <mxGeometry x="809" y="306" width="133" height="22" as="geometry" />
        </mxCell>
        <mxCell id="wJYl4lRXU7Mfr5Yau0XG-51" value="" style="group" parent="1" vertex="1" connectable="0">
          <mxGeometry x="785" y="357" width="230" height="205" as="geometry" />
        </mxCell>
        <mxCell id="wJYl4lRXU7Mfr5Yau0XG-52" value="" style="group" parent="wJYl4lRXU7Mfr5Yau0XG-51" vertex="1" connectable="0">
          <mxGeometry width="230" height="205" as="geometry" />
        </mxCell>
        <mxCell id="wJYl4lRXU7Mfr5Yau0XG-53" value="" style="rounded=1;whiteSpace=wrap;html=1;fillColor=#fff2cc;strokeColor=#d6b656;" parent="wJYl4lRXU7Mfr5Yau0XG-52" vertex="1">
          <mxGeometry x="1.5127432173198703" width="189.09290216497664" height="205" as="geometry" />
        </mxCell>
        <mxCell id="wJYl4lRXU7Mfr5Yau0XG-54" value="" style="endArrow=none;html=1;entryX=-0.008;entryY=0.305;entryDx=0;entryDy=0;entryPerimeter=0;" parent="wJYl4lRXU7Mfr5Yau0XG-52" edge="1">
          <mxGeometry width="50" height="50" relative="1" as="geometry">
            <mxPoint x="190.6056453822965" y="52" as="sourcePoint" />
            <mxPoint y="52.09999999999991" as="targetPoint" />
          </mxGeometry>
        </mxCell>
        <mxCell id="wJYl4lRXU7Mfr5Yau0XG-55" value="" style="endArrow=none;html=1;entryX=-0.008;entryY=0.305;entryDx=0;entryDy=0;entryPerimeter=0;" parent="wJYl4lRXU7Mfr5Yau0XG-52" edge="1">
          <mxGeometry width="50" height="50" relative="1" as="geometry">
            <mxPoint x="190.6056453822965" y="110" as="sourcePoint" />
            <mxPoint y="110.09999999999991" as="targetPoint" />
          </mxGeometry>
        </mxCell>
        <mxCell id="wJYl4lRXU7Mfr5Yau0XG-56" value="" style="endArrow=none;html=1;entryX=-0.008;entryY=0.305;entryDx=0;entryDy=0;entryPerimeter=0;" parent="wJYl4lRXU7Mfr5Yau0XG-52" edge="1">
          <mxGeometry width="50" height="50" relative="1" as="geometry">
            <mxPoint x="190.6056453822965" y="160" as="sourcePoint" />
            <mxPoint y="160.0999999999999" as="targetPoint" />
          </mxGeometry>
        </mxCell>
        <mxCell id="wJYl4lRXU7Mfr5Yau0XG-57" value="&lt;font style=&quot;font-size: 20px&quot;&gt;&lt;b&gt;ThreadLocalMap&lt;/b&gt;&lt;/font&gt;" style="text;html=1;align=center;verticalAlign=middle;resizable=0;points=[];autosize=1;" parent="wJYl4lRXU7Mfr5Yau0XG-52" vertex="1">
          <mxGeometry x="11.058388599616443" y="20" width="170" height="20" as="geometry" />
        </mxCell>
        <mxCell id="wJYl4lRXU7Mfr5Yau0XG-58" value="" style="endArrow=classic;html=1;exitX=0.653;exitY=1.2;exitDx=0;exitDy=0;exitPerimeter=0;fillColor=#f8cecc;strokeColor=#B85450;strokeWidth=5;entryX=0.5;entryY=-0.029;entryDx=0;entryDy=0;entryPerimeter=0;" parent="1" source="wJYl4lRXU7Mfr5Yau0XG-57" target="wJYl4lRXU7Mfr5Yau0XG-60" edge="1">
          <mxGeometry width="50" height="50" relative="1" as="geometry">
            <mxPoint x="915" y="417" as="sourcePoint" />
            <mxPoint x="935.379663775265" y="607" as="targetPoint" />
          </mxGeometry>
        </mxCell>
        <mxCell id="wJYl4lRXU7Mfr5Yau0XG-66" value="" style="endArrow=classic;html=1;exitX=0.653;exitY=1.2;exitDx=0;exitDy=0;exitPerimeter=0;fillColor=#f8cecc;strokeColor=#B85450;strokeWidth=5;" parent="1" edge="1">
          <mxGeometry width="50" height="50" relative="1" as="geometry">
            <mxPoint x="299.99838859961636" y="710" as="sourcePoint" />
            <mxPoint x="540" y="830" as="targetPoint" />
          </mxGeometry>
        </mxCell>
        <mxCell id="wJYl4lRXU7Mfr5Yau0XG-67" value="" style="endArrow=classic;html=1;exitX=0.491;exitY=1.114;exitDx=0;exitDy=0;exitPerimeter=0;fillColor=#f8cecc;strokeColor=#B85450;strokeWidth=5;" parent="1" source="wJYl4lRXU7Mfr5Yau0XG-46" edge="1">
          <mxGeometry width="50" height="50" relative="1" as="geometry">
            <mxPoint x="262.06838859961636" y="424" as="sourcePoint" />
            <mxPoint x="540" y="830" as="targetPoint" />
          </mxGeometry>
        </mxCell>
        <mxCell id="wJYl4lRXU7Mfr5Yau0XG-68" value="" style="endArrow=classic;html=1;exitX=0.491;exitY=1.057;exitDx=0;exitDy=0;exitPerimeter=0;fillColor=#f8cecc;strokeColor=#B85450;strokeWidth=5;" parent="1" source="wJYl4lRXU7Mfr5Yau0XG-63" edge="1">
          <mxGeometry width="50" height="50" relative="1" as="geometry">
            <mxPoint x="272.06838859961636" y="434" as="sourcePoint" />
            <mxPoint x="540" y="830" as="targetPoint" />
          </mxGeometry>
        </mxCell>
        <mxCell id="wJYl4lRXU7Mfr5Yau0XG-70" value="ThreadLocal" style="ellipse;shape=cloud;whiteSpace=wrap;html=1;align=center;fontSize=18;" parent="1" vertex="1">
          <mxGeometry x="430" y="820" width="225" height="80" as="geometry" />
        </mxCell>
        <mxCell id="wJYl4lRXU7Mfr5Yau0XG-59" value="" style="shape=table;html=1;whiteSpace=wrap;startSize=0;container=1;collapsible=0;childLayout=tableLayout;fontSize=18;fontStyle=1" parent="1" vertex="1">
          <mxGeometry x="750" y="640" width="220" height="70" as="geometry" />
        </mxCell>
        <mxCell id="wJYl4lRXU7Mfr5Yau0XG-60" value="" style="shape=partialRectangle;html=1;whiteSpace=wrap;collapsible=0;dropTarget=0;pointerEvents=0;fillColor=none;top=0;left=0;bottom=0;right=0;points=[[0,0.5],[1,0.5]];portConstraint=eastwest;fontSize=18;fontStyle=1" parent="wJYl4lRXU7Mfr5Yau0XG-59" vertex="1">
          <mxGeometry width="220" height="35" as="geometry" />
        </mxCell>
        <mxCell id="wJYl4lRXU7Mfr5Yau0XG-61" value="key" style="shape=partialRectangle;html=1;whiteSpace=wrap;connectable=0;overflow=hidden;fillColor=#e1d5e7;top=0;left=0;bottom=0;right=0;fontSize=18;fontStyle=1;strokeColor=#9673a6;" parent="wJYl4lRXU7Mfr5Yau0XG-60" vertex="1">
          <mxGeometry width="110" height="35" as="geometry" />
        </mxCell>
        <mxCell id="wJYl4lRXU7Mfr5Yau0XG-62" value="value" style="shape=partialRectangle;html=1;whiteSpace=wrap;connectable=0;overflow=hidden;fillColor=#e1d5e7;top=0;left=0;bottom=0;right=0;fontSize=18;fontStyle=1;strokeColor=#9673a6;" parent="wJYl4lRXU7Mfr5Yau0XG-60" vertex="1">
          <mxGeometry x="110" width="110" height="35" as="geometry" />
        </mxCell>
        <mxCell id="wJYl4lRXU7Mfr5Yau0XG-63" value="" style="shape=partialRectangle;html=1;whiteSpace=wrap;collapsible=0;dropTarget=0;pointerEvents=0;fillColor=none;top=0;left=0;bottom=0;right=0;points=[[0,0.5],[1,0.5]];portConstraint=eastwest;fontSize=18;fontStyle=1" parent="wJYl4lRXU7Mfr5Yau0XG-59" vertex="1">
          <mxGeometry y="35" width="220" height="35" as="geometry" />
        </mxCell>
        <mxCell id="wJYl4lRXU7Mfr5Yau0XG-64" value="ThreadLocal" style="shape=partialRectangle;html=1;whiteSpace=wrap;connectable=0;overflow=hidden;fillColor=#d5e8d4;top=0;left=0;bottom=0;right=0;fontSize=18;fontStyle=1;strokeColor=#82b366;" parent="wJYl4lRXU7Mfr5Yau0XG-63" vertex="1">
          <mxGeometry width="110" height="35" as="geometry" />
        </mxCell>
        <mxCell id="wJYl4lRXU7Mfr5Yau0XG-65" value="value3" style="shape=partialRectangle;html=1;whiteSpace=wrap;connectable=0;overflow=hidden;fillColor=#d5e8d4;top=0;left=0;bottom=0;right=0;fontSize=18;fontStyle=1;strokeColor=#82b366;" parent="wJYl4lRXU7Mfr5Yau0XG-63" vertex="1">
          <mxGeometry x="110" width="110" height="35" as="geometry" />
        </mxCell>
        <mxCell id="wJYl4lRXU7Mfr5Yau0XG-42" value="" style="shape=table;html=1;whiteSpace=wrap;startSize=0;container=1;collapsible=0;childLayout=tableLayout;fontSize=18;fontStyle=1" parent="1" vertex="1">
          <mxGeometry x="457" y="640" width="220" height="70" as="geometry" />
        </mxCell>
        <mxCell id="wJYl4lRXU7Mfr5Yau0XG-43" value="" style="shape=partialRectangle;html=1;whiteSpace=wrap;collapsible=0;dropTarget=0;pointerEvents=0;fillColor=none;top=0;left=0;bottom=0;right=0;points=[[0,0.5],[1,0.5]];portConstraint=eastwest;fontSize=18;fontStyle=1" parent="wJYl4lRXU7Mfr5Yau0XG-42" vertex="1">
          <mxGeometry width="220" height="35" as="geometry" />
        </mxCell>
        <mxCell id="wJYl4lRXU7Mfr5Yau0XG-44" value="key" style="shape=partialRectangle;html=1;whiteSpace=wrap;connectable=0;overflow=hidden;fillColor=#e1d5e7;top=0;left=0;bottom=0;right=0;fontSize=18;fontStyle=1;strokeColor=#9673a6;" parent="wJYl4lRXU7Mfr5Yau0XG-43" vertex="1">
          <mxGeometry width="110" height="35" as="geometry" />
        </mxCell>
        <mxCell id="wJYl4lRXU7Mfr5Yau0XG-45" value="value" style="shape=partialRectangle;html=1;whiteSpace=wrap;connectable=0;overflow=hidden;fillColor=#e1d5e7;top=0;left=0;bottom=0;right=0;fontSize=18;fontStyle=1;strokeColor=#9673a6;" parent="wJYl4lRXU7Mfr5Yau0XG-43" vertex="1">
          <mxGeometry x="110" width="110" height="35" as="geometry" />
        </mxCell>
        <mxCell id="wJYl4lRXU7Mfr5Yau0XG-46" value="" style="shape=partialRectangle;html=1;whiteSpace=wrap;collapsible=0;dropTarget=0;pointerEvents=0;fillColor=none;top=0;left=0;bottom=0;right=0;points=[[0,0.5],[1,0.5]];portConstraint=eastwest;fontSize=18;fontStyle=1" parent="wJYl4lRXU7Mfr5Yau0XG-42" vertex="1">
          <mxGeometry y="35" width="220" height="35" as="geometry" />
        </mxCell>
        <mxCell id="wJYl4lRXU7Mfr5Yau0XG-47" value="ThreadLocal" style="shape=partialRectangle;html=1;whiteSpace=wrap;connectable=0;overflow=hidden;fillColor=#d5e8d4;top=0;left=0;bottom=0;right=0;fontSize=18;fontStyle=1;strokeColor=#82b366;" parent="wJYl4lRXU7Mfr5Yau0XG-46" vertex="1">
          <mxGeometry width="110" height="35" as="geometry" />
        </mxCell>
        <mxCell id="wJYl4lRXU7Mfr5Yau0XG-48" value="value2" style="shape=partialRectangle;html=1;whiteSpace=wrap;connectable=0;overflow=hidden;fillColor=#d5e8d4;top=0;left=0;bottom=0;right=0;fontSize=18;fontStyle=1;strokeColor=#82b366;" parent="wJYl4lRXU7Mfr5Yau0XG-46" vertex="1">
          <mxGeometry x="110" width="110" height="35" as="geometry" />
        </mxCell>
        <mxCell id="wJYl4lRXU7Mfr5Yau0XG-72" value="" style="rounded=1;whiteSpace=wrap;html=1;fillColor=#dae8fc;strokeColor=#6c8ebf;" parent="1" vertex="1">
          <mxGeometry x="184" y="929" width="220" height="330" as="geometry" />
        </mxCell>
        <mxCell id="wJYl4lRXU7Mfr5Yau0XG-73" value="&lt;font size=&quot;1&quot;&gt;&lt;b style=&quot;font-size: 23px&quot;&gt;ThreadLocal&lt;/b&gt;&lt;/font&gt;" style="text;html=1;align=center;verticalAlign=middle;resizable=0;points=[];autosize=1;" parent="1" vertex="1">
          <mxGeometry x="216" y="968" width="147" height="22" as="geometry" />
        </mxCell>
        <mxCell id="wJYl4lRXU7Mfr5Yau0XG-74" value="" style="group" parent="1" vertex="1" connectable="0">
          <mxGeometry x="199" y="1019" width="230" height="205" as="geometry" />
        </mxCell>
        <mxCell id="wJYl4lRXU7Mfr5Yau0XG-75" value="" style="group" parent="wJYl4lRXU7Mfr5Yau0XG-74" vertex="1" connectable="0">
          <mxGeometry width="230" height="205" as="geometry" />
        </mxCell>
        <mxCell id="wJYl4lRXU7Mfr5Yau0XG-76" value="" style="rounded=1;whiteSpace=wrap;html=1;fillColor=#fff2cc;strokeColor=#d6b656;" parent="wJYl4lRXU7Mfr5Yau0XG-75" vertex="1">
          <mxGeometry x="1.5127432173198703" width="189.09290216497664" height="205" as="geometry" />
        </mxCell>
        <mxCell id="wJYl4lRXU7Mfr5Yau0XG-77" value="" style="endArrow=none;html=1;entryX=-0.008;entryY=0.305;entryDx=0;entryDy=0;entryPerimeter=0;" parent="wJYl4lRXU7Mfr5Yau0XG-75" edge="1">
          <mxGeometry width="50" height="50" relative="1" as="geometry">
            <mxPoint x="190.6056453822965" y="52" as="sourcePoint" />
            <mxPoint y="52.09999999999991" as="targetPoint" />
          </mxGeometry>
        </mxCell>
        <mxCell id="wJYl4lRXU7Mfr5Yau0XG-78" value="" style="endArrow=none;html=1;entryX=-0.008;entryY=0.305;entryDx=0;entryDy=0;entryPerimeter=0;" parent="wJYl4lRXU7Mfr5Yau0XG-75" edge="1">
          <mxGeometry width="50" height="50" relative="1" as="geometry">
            <mxPoint x="190.6056453822965" y="110" as="sourcePoint" />
            <mxPoint y="110.09999999999991" as="targetPoint" />
          </mxGeometry>
        </mxCell>
        <mxCell id="wJYl4lRXU7Mfr5Yau0XG-79" value="" style="endArrow=none;html=1;entryX=-0.008;entryY=0.305;entryDx=0;entryDy=0;entryPerimeter=0;" parent="wJYl4lRXU7Mfr5Yau0XG-75" edge="1">
          <mxGeometry width="50" height="50" relative="1" as="geometry">
            <mxPoint x="190.6056453822965" y="160" as="sourcePoint" />
            <mxPoint y="160.0999999999999" as="targetPoint" />
          </mxGeometry>
        </mxCell>
        <mxCell id="wJYl4lRXU7Mfr5Yau0XG-80" value="&lt;span style=&quot;font-size: 20px&quot;&gt;&lt;b&gt;Entry&lt;/b&gt;&lt;/span&gt;" style="text;html=1;align=center;verticalAlign=middle;resizable=0;points=[];autosize=1;" parent="wJYl4lRXU7Mfr5Yau0XG-75" vertex="1">
          <mxGeometry x="66.05838859961645" y="20" width="61" height="21" as="geometry" />
        </mxCell>
        <mxCell id="wJYl4lRXU7Mfr5Yau0XG-81" value="" style="endArrow=classic;html=1;exitX=0.653;exitY=1.2;exitDx=0;exitDy=0;exitPerimeter=0;fillColor=#f8cecc;strokeColor=#B85450;strokeWidth=5;" parent="1" source="wJYl4lRXU7Mfr5Yau0XG-80" target="wJYl4lRXU7Mfr5Yau0XG-83" edge="1">
          <mxGeometry width="50" height="50" relative="1" as="geometry">
            <mxPoint x="329" y="1079" as="sourcePoint" />
            <mxPoint x="349.37966377526504" y="1269" as="targetPoint" />
          </mxGeometry>
        </mxCell>
        <mxCell id="wJYl4lRXU7Mfr5Yau0XG-82" value="" style="shape=table;html=1;whiteSpace=wrap;startSize=0;container=1;collapsible=0;childLayout=tableLayout;fontSize=18;fontStyle=1" parent="1" vertex="1">
          <mxGeometry x="269" y="1299" width="220" height="70" as="geometry" />
        </mxCell>
        <mxCell id="wJYl4lRXU7Mfr5Yau0XG-83" value="" style="shape=partialRectangle;html=1;whiteSpace=wrap;collapsible=0;dropTarget=0;pointerEvents=0;fillColor=none;top=0;left=0;bottom=0;right=0;points=[[0,0.5],[1,0.5]];portConstraint=eastwest;fontSize=18;fontStyle=1" parent="wJYl4lRXU7Mfr5Yau0XG-82" vertex="1">
          <mxGeometry width="220" height="35" as="geometry" />
        </mxCell>
        <mxCell id="wJYl4lRXU7Mfr5Yau0XG-84" value="key" style="shape=partialRectangle;html=1;whiteSpace=wrap;connectable=0;overflow=hidden;fillColor=#e1d5e7;top=0;left=0;bottom=0;right=0;fontSize=18;fontStyle=1;strokeColor=#9673a6;" parent="wJYl4lRXU7Mfr5Yau0XG-83" vertex="1">
          <mxGeometry width="110" height="35" as="geometry" />
        </mxCell>
        <mxCell id="wJYl4lRXU7Mfr5Yau0XG-85" value="value" style="shape=partialRectangle;html=1;whiteSpace=wrap;connectable=0;overflow=hidden;fillColor=#e1d5e7;top=0;left=0;bottom=0;right=0;fontSize=18;fontStyle=1;strokeColor=#9673a6;" parent="wJYl4lRXU7Mfr5Yau0XG-83" vertex="1">
          <mxGeometry x="110" width="110" height="35" as="geometry" />
        </mxCell>
        <mxCell id="wJYl4lRXU7Mfr5Yau0XG-86" value="" style="shape=partialRectangle;html=1;whiteSpace=wrap;collapsible=0;dropTarget=0;pointerEvents=0;fillColor=none;top=0;left=0;bottom=0;right=0;points=[[0,0.5],[1,0.5]];portConstraint=eastwest;fontSize=18;fontStyle=1" parent="wJYl4lRXU7Mfr5Yau0XG-82" vertex="1">
          <mxGeometry y="35" width="220" height="35" as="geometry" />
        </mxCell>
        <mxCell id="wJYl4lRXU7Mfr5Yau0XG-87" value="Thread" style="shape=partialRectangle;html=1;whiteSpace=wrap;connectable=0;overflow=hidden;fillColor=#d5e8d4;top=0;left=0;bottom=0;right=0;fontSize=18;fontStyle=1;strokeColor=#82b366;" parent="wJYl4lRXU7Mfr5Yau0XG-86" vertex="1">
          <mxGeometry width="110" height="35" as="geometry" />
        </mxCell>
        <mxCell id="wJYl4lRXU7Mfr5Yau0XG-88" value="value1" style="shape=partialRectangle;html=1;whiteSpace=wrap;connectable=0;overflow=hidden;fillColor=#d5e8d4;top=0;left=0;bottom=0;right=0;fontSize=18;fontStyle=1;strokeColor=#82b366;" parent="wJYl4lRXU7Mfr5Yau0XG-86" vertex="1">
          <mxGeometry x="110" width="110" height="35" as="geometry" />
        </mxCell>
        <mxCell id="Bpl0cMvDk8CUBROf8KLS-1" value="" style="rounded=1;whiteSpace=wrap;html=1;fillColor=#fff2cc;strokeColor=#d6b656;glass=0;labelBorderColor=none;sketch=1;treeMoving=0;snapToPoint=0;fixDash=0;disableMultiStroke=0;treeFolding=0;noLabel=0;absoluteArcSize=0;shadow=0;imageAspect=1;" vertex="1" parent="1">
          <mxGeometry x="102" y="1578" width="209" height="316" as="geometry" />
        </mxCell>
        <mxCell id="Bpl0cMvDk8CUBROf8KLS-4" value="&lt;font style=&quot;font-size: 19px&quot;&gt;&lt;b&gt;ThreadLocal&lt;/b&gt;&lt;/font&gt;" style="rounded=1;whiteSpace=wrap;html=1;strokeWidth=2;fillWeight=4;hachureGap=8;hachureAngle=45;fillColor=#1ba1e2;sketch=1;shadow=0;glass=0;disableMultiStroke=0;treeMoving=0;deletable=1;opacity=30;" vertex="1" parent="1">
          <mxGeometry x="433" y="1624" width="120" height="60" as="geometry" />
        </mxCell>
        <mxCell id="Bpl0cMvDk8CUBROf8KLS-11" style="rounded=0;orthogonalLoop=1;jettySize=auto;html=1;exitX=1;exitY=0.5;exitDx=0;exitDy=0;entryX=0;entryY=0.5;entryDx=0;entryDy=0;fontColor=#CC0000;fontSize=14;strokeWidth=3;" edge="1" parent="1" source="Bpl0cMvDk8CUBROf8KLS-5" target="Bpl0cMvDk8CUBROf8KLS-4">
          <mxGeometry relative="1" as="geometry" />
        </mxCell>
        <mxCell id="Bpl0cMvDk8CUBROf8KLS-5" value="&lt;b style=&quot;font-size: 21px&quot;&gt;ThreadLocalRef&lt;/b&gt;" style="shape=ext;double=1;rounded=1;whiteSpace=wrap;html=1;shadow=0;glass=0;sketch=1;disableMultiStroke=1;disableMultiStrokeFill=0;treeFolding=0;treeMoving=0;movableLabel=0;arcSize=41;portConstraintRotation=0;fixDash=0;autosize=0;dropTarget=0;fillColor=#dae8fc;strokeColor=#6c8ebf;" vertex="1" parent="1">
          <mxGeometry x="114.5" y="1662" width="184" height="80" as="geometry" />
        </mxCell>
        <mxCell id="Bpl0cMvDk8CUBROf8KLS-12" style="edgeStyle=none;rounded=0;orthogonalLoop=1;jettySize=auto;html=1;exitX=1;exitY=0.5;exitDx=0;exitDy=0;entryX=0;entryY=0.5;entryDx=0;entryDy=0;fontColor=#CC0000;fontSize=14;strokeWidth=3;" edge="1" parent="1" source="Bpl0cMvDk8CUBROf8KLS-7" target="Bpl0cMvDk8CUBROf8KLS-10">
          <mxGeometry relative="1" as="geometry" />
        </mxCell>
        <mxCell id="Bpl0cMvDk8CUBROf8KLS-7" value="&lt;b style=&quot;font-size: 21px&quot;&gt;CurrentThreadRef&lt;/b&gt;" style="shape=ext;double=1;rounded=1;whiteSpace=wrap;html=1;shadow=0;glass=0;sketch=1;disableMultiStroke=1;disableMultiStrokeFill=0;treeFolding=0;treeMoving=0;movableLabel=0;arcSize=41;portConstraintRotation=0;fixDash=0;autosize=0;dropTarget=0;fillColor=#dae8fc;strokeColor=#6c8ebf;" vertex="1" parent="1">
          <mxGeometry x="107.5" y="1777" width="198" height="80" as="geometry" />
        </mxCell>
        <mxCell id="Bpl0cMvDk8CUBROf8KLS-8" value="&lt;font class=&quot;cs_cursor&quot; size=&quot;1&quot;&gt;&lt;b style=&quot;font-size: 32px&quot;&gt;Stack&lt;/b&gt;&lt;/font&gt;" style="text;html=1;align=center;verticalAlign=middle;resizable=0;points=[];autosize=1;fontColor=#CC0000;" vertex="1" parent="1">
          <mxGeometry x="159" y="1590" width="95" height="25" as="geometry" />
        </mxCell>
        <mxCell id="Bpl0cMvDk8CUBROf8KLS-14" value="" style="edgeStyle=none;rounded=0;orthogonalLoop=1;jettySize=auto;html=1;fontColor=#CC0000;fontSize=14;strokeWidth=3;" edge="1" parent="1" source="Bpl0cMvDk8CUBROf8KLS-10" target="Bpl0cMvDk8CUBROf8KLS-13">
          <mxGeometry relative="1" as="geometry" />
        </mxCell>
        <mxCell id="Bpl0cMvDk8CUBROf8KLS-10" value="&lt;font style=&quot;font-size: 19px&quot;&gt;&lt;b&gt;CurrentThread&lt;/b&gt;&lt;/font&gt;" style="rounded=1;whiteSpace=wrap;html=1;strokeWidth=2;fillWeight=4;hachureGap=8;hachureAngle=45;fillColor=#1ba1e2;sketch=1;shadow=0;glass=0;disableMultiStroke=0;treeMoving=0;deletable=1;opacity=30;" vertex="1" parent="1">
          <mxGeometry x="419.5" y="1809" width="147" height="60" as="geometry" />
        </mxCell>
        <mxCell id="Bpl0cMvDk8CUBROf8KLS-19" style="edgeStyle=none;rounded=0;orthogonalLoop=1;jettySize=auto;html=1;exitX=1;exitY=0.5;exitDx=0;exitDy=0;entryX=0;entryY=0.5;entryDx=0;entryDy=0;fontColor=#CC0000;fontSize=14;strokeWidth=3;" edge="1" parent="1" source="Bpl0cMvDk8CUBROf8KLS-13" target="Bpl0cMvDk8CUBROf8KLS-15">
          <mxGeometry relative="1" as="geometry" />
        </mxCell>
        <mxCell id="Bpl0cMvDk8CUBROf8KLS-13" value="&lt;font style=&quot;font-size: 19px&quot;&gt;&lt;b class=&quot;cs_cursor&quot;&gt;Map&lt;/b&gt;&lt;/font&gt;" style="rounded=1;whiteSpace=wrap;html=1;strokeWidth=2;fillWeight=4;hachureGap=8;hachureAngle=45;fillColor=#1ba1e2;sketch=1;shadow=0;glass=0;disableMultiStroke=0;treeMoving=0;deletable=1;opacity=30;" vertex="1" parent="1">
          <mxGeometry x="609" y="1812" width="70.5" height="60" as="geometry" />
        </mxCell>
        <mxCell id="Bpl0cMvDk8CUBROf8KLS-15" value="" style="rounded=1;whiteSpace=wrap;html=1;fillColor=#f8cecc;strokeColor=#b85450;glass=0;labelBorderColor=none;sketch=1;treeMoving=0;snapToPoint=0;fixDash=0;disableMultiStroke=0;treeFolding=0;noLabel=0;absoluteArcSize=0;shadow=0;imageAspect=1;" vertex="1" parent="1">
          <mxGeometry x="742" y="1652.5" width="162" height="167" as="geometry" />
        </mxCell>
        <mxCell id="Bpl0cMvDk8CUBROf8KLS-22" style="edgeStyle=none;rounded=0;orthogonalLoop=1;jettySize=auto;html=1;exitX=0;exitY=0;exitDx=0;exitDy=0;entryX=1;entryY=0.5;entryDx=0;entryDy=0;fontColor=#CC0000;fontSize=14;strokeWidth=3;" edge="1" parent="1" source="Bpl0cMvDk8CUBROf8KLS-16" target="Bpl0cMvDk8CUBROf8KLS-4">
          <mxGeometry relative="1" as="geometry" />
        </mxCell>
        <mxCell id="Bpl0cMvDk8CUBROf8KLS-16" value="&lt;b style=&quot;font-size: 21px&quot;&gt;key&lt;/b&gt;" style="shape=ext;double=1;rounded=1;whiteSpace=wrap;html=1;shadow=0;glass=0;sketch=1;disableMultiStroke=1;disableMultiStrokeFill=0;treeFolding=0;treeMoving=0;movableLabel=0;arcSize=41;portConstraintRotation=0;fixDash=0;autosize=0;dropTarget=0;fillColor=#dae8fc;strokeColor=#6c8ebf;" vertex="1" parent="1">
          <mxGeometry x="782.75" y="1661.5" width="80.5" height="63" as="geometry" />
        </mxCell>
        <mxCell id="Bpl0cMvDk8CUBROf8KLS-17" value="&lt;b style=&quot;font-size: 21px&quot;&gt;value&lt;/b&gt;" style="shape=ext;double=1;rounded=1;whiteSpace=wrap;html=1;shadow=0;glass=0;sketch=1;disableMultiStroke=1;disableMultiStrokeFill=0;treeFolding=0;treeMoving=0;movableLabel=0;arcSize=41;portConstraintRotation=0;fixDash=0;autosize=0;dropTarget=0;fillColor=#dae8fc;strokeColor=#6c8ebf;" vertex="1" parent="1">
          <mxGeometry x="779.25" y="1744.5" width="87.5" height="64" as="geometry" />
        </mxCell>
        <mxCell id="Bpl0cMvDk8CUBROf8KLS-20" value="&lt;font size=&quot;1&quot;&gt;&lt;b style=&quot;font-size: 23px&quot;&gt;Entry&lt;/b&gt;&lt;/font&gt;" style="text;html=1;align=center;verticalAlign=middle;resizable=0;points=[];autosize=1;fontColor=#CC0000;" vertex="1" parent="1">
          <mxGeometry x="788.5" y="1835" width="69" height="22" as="geometry" />
        </mxCell>
        <mxCell id="Bpl0cMvDk8CUBROf8KLS-23" style="edgeStyle=none;rounded=0;orthogonalLoop=1;jettySize=auto;html=1;exitX=1;exitY=0.5;exitDx=0;exitDy=0;strokeWidth=3;fontSize=14;fontColor=#CC0000;" edge="1" parent="1" source="Bpl0cMvDk8CUBROf8KLS-9" target="Bpl0cMvDk8CUBROf8KLS-9">
          <mxGeometry relative="1" as="geometry" />
        </mxCell>
        <mxCell id="Bpl0cMvDk8CUBROf8KLS-24" value="" style="shape=ext;double=1;rounded=1;whiteSpace=wrap;html=1;shadow=0;glass=0;sketch=1;disableMultiStroke=1;disableMultiStrokeFill=0;gradientColor=none;fontColor=#CC0000;" vertex="1" parent="1">
          <mxGeometry x="391" y="1988" width="550" height="301" as="geometry" />
        </mxCell>
        <mxCell id="Bpl0cMvDk8CUBROf8KLS-25" value="" style="rounded=1;whiteSpace=wrap;html=1;fillColor=#fff2cc;strokeColor=#d6b656;glass=0;labelBorderColor=none;sketch=1;treeMoving=0;snapToPoint=0;fixDash=0;disableMultiStroke=0;treeFolding=0;noLabel=0;absoluteArcSize=0;shadow=0;imageAspect=1;" vertex="1" parent="1">
          <mxGeometry x="108" y="1976" width="209" height="316" as="geometry" />
        </mxCell>
        <mxCell id="Bpl0cMvDk8CUBROf8KLS-26" value="&lt;font style=&quot;font-size: 19px&quot;&gt;&lt;b&gt;ThreadLocal&lt;/b&gt;&lt;/font&gt;" style="rounded=1;whiteSpace=wrap;html=1;strokeWidth=2;fillWeight=4;hachureGap=8;hachureAngle=45;fillColor=#1ba1e2;sketch=1;shadow=0;glass=0;disableMultiStroke=0;treeMoving=0;deletable=1;opacity=30;" vertex="1" parent="1">
          <mxGeometry x="439" y="2022" width="120" height="60" as="geometry" />
        </mxCell>
        <mxCell id="Bpl0cMvDk8CUBROf8KLS-27" style="rounded=0;orthogonalLoop=1;jettySize=auto;html=1;exitX=1;exitY=0.5;exitDx=0;exitDy=0;entryX=0;entryY=0.5;entryDx=0;entryDy=0;fontColor=#CC0000;fontSize=14;strokeWidth=3;" edge="1" parent="1" source="Bpl0cMvDk8CUBROf8KLS-28" target="Bpl0cMvDk8CUBROf8KLS-26">
          <mxGeometry relative="1" as="geometry" />
        </mxCell>
        <mxCell id="Bpl0cMvDk8CUBROf8KLS-28" value="&lt;b style=&quot;font-size: 21px&quot;&gt;ThreadLocalRef&lt;/b&gt;" style="shape=ext;double=1;rounded=1;whiteSpace=wrap;html=1;shadow=0;glass=0;sketch=1;disableMultiStroke=1;disableMultiStrokeFill=0;treeFolding=0;treeMoving=0;movableLabel=0;arcSize=41;portConstraintRotation=0;fixDash=0;autosize=0;dropTarget=0;fillColor=#dae8fc;strokeColor=#6c8ebf;" vertex="1" parent="1">
          <mxGeometry x="120.5" y="2060" width="184" height="80" as="geometry" />
        </mxCell>
        <mxCell id="Bpl0cMvDk8CUBROf8KLS-29" style="edgeStyle=none;rounded=0;orthogonalLoop=1;jettySize=auto;html=1;exitX=1;exitY=0.5;exitDx=0;exitDy=0;entryX=0;entryY=0.5;entryDx=0;entryDy=0;fontColor=#CC0000;fontSize=14;strokeWidth=3;" edge="1" parent="1" source="Bpl0cMvDk8CUBROf8KLS-30" target="Bpl0cMvDk8CUBROf8KLS-33">
          <mxGeometry relative="1" as="geometry" />
        </mxCell>
        <mxCell id="Bpl0cMvDk8CUBROf8KLS-30" value="&lt;b style=&quot;font-size: 21px&quot;&gt;CurrentThreadRef&lt;/b&gt;" style="shape=ext;double=1;rounded=1;whiteSpace=wrap;html=1;shadow=0;glass=0;sketch=1;disableMultiStroke=1;disableMultiStrokeFill=0;treeFolding=0;treeMoving=0;movableLabel=0;arcSize=41;portConstraintRotation=0;fixDash=0;autosize=0;dropTarget=0;fillColor=#dae8fc;strokeColor=#6c8ebf;" vertex="1" parent="1">
          <mxGeometry x="113.5" y="2175" width="198" height="80" as="geometry" />
        </mxCell>
        <mxCell id="Bpl0cMvDk8CUBROf8KLS-31" value="&lt;font class=&quot;cs_cursor&quot; size=&quot;1&quot;&gt;&lt;b style=&quot;font-size: 32px&quot;&gt;Stack&lt;/b&gt;&lt;/font&gt;" style="text;html=1;align=center;verticalAlign=middle;resizable=0;points=[];autosize=1;fontColor=#CC0000;" vertex="1" parent="1">
          <mxGeometry x="165" y="1988" width="95" height="25" as="geometry" />
        </mxCell>
        <mxCell id="Bpl0cMvDk8CUBROf8KLS-32" value="" style="edgeStyle=none;rounded=0;orthogonalLoop=1;jettySize=auto;html=1;fontColor=#CC0000;fontSize=14;strokeWidth=3;" edge="1" parent="1" source="Bpl0cMvDk8CUBROf8KLS-33" target="Bpl0cMvDk8CUBROf8KLS-35">
          <mxGeometry relative="1" as="geometry" />
        </mxCell>
        <mxCell id="Bpl0cMvDk8CUBROf8KLS-33" value="&lt;font style=&quot;font-size: 19px&quot;&gt;&lt;b&gt;CurrentThread&lt;/b&gt;&lt;/font&gt;" style="rounded=1;whiteSpace=wrap;html=1;strokeWidth=2;fillWeight=4;hachureGap=8;hachureAngle=45;fillColor=#1ba1e2;sketch=1;shadow=0;glass=0;disableMultiStroke=0;treeMoving=0;deletable=1;opacity=30;" vertex="1" parent="1">
          <mxGeometry x="425.5" y="2207" width="147" height="60" as="geometry" />
        </mxCell>
        <mxCell id="Bpl0cMvDk8CUBROf8KLS-34" style="edgeStyle=none;rounded=0;orthogonalLoop=1;jettySize=auto;html=1;exitX=1;exitY=0.5;exitDx=0;exitDy=0;entryX=0;entryY=0.5;entryDx=0;entryDy=0;fontColor=#CC0000;fontSize=14;strokeWidth=3;" edge="1" parent="1" source="Bpl0cMvDk8CUBROf8KLS-35" target="Bpl0cMvDk8CUBROf8KLS-36">
          <mxGeometry relative="1" as="geometry" />
        </mxCell>
        <mxCell id="Bpl0cMvDk8CUBROf8KLS-35" value="&lt;font style=&quot;font-size: 19px&quot;&gt;&lt;b class=&quot;cs_cursor&quot;&gt;Map&lt;/b&gt;&lt;/font&gt;" style="rounded=1;whiteSpace=wrap;html=1;strokeWidth=2;fillWeight=4;hachureGap=8;hachureAngle=45;fillColor=#1ba1e2;sketch=1;shadow=0;glass=0;disableMultiStroke=0;treeMoving=0;deletable=1;opacity=30;" vertex="1" parent="1">
          <mxGeometry x="615" y="2210" width="70.5" height="60" as="geometry" />
        </mxCell>
        <mxCell id="Bpl0cMvDk8CUBROf8KLS-36" value="" style="rounded=1;whiteSpace=wrap;html=1;fillColor=#f8cecc;strokeColor=#b85450;glass=0;labelBorderColor=none;sketch=1;treeMoving=0;snapToPoint=0;fixDash=0;disableMultiStroke=0;treeFolding=0;noLabel=0;absoluteArcSize=0;shadow=0;imageAspect=1;" vertex="1" parent="1">
          <mxGeometry x="748" y="2050.5" width="162" height="167" as="geometry" />
        </mxCell>
        <mxCell id="Bpl0cMvDk8CUBROf8KLS-37" style="edgeStyle=none;rounded=0;orthogonalLoop=1;jettySize=auto;html=1;exitX=0;exitY=0;exitDx=0;exitDy=0;entryX=1;entryY=0.5;entryDx=0;entryDy=0;fontColor=#CC0000;fontSize=14;strokeWidth=3;jumpStyle=none;dashed=1;" edge="1" parent="1" source="Bpl0cMvDk8CUBROf8KLS-38" target="Bpl0cMvDk8CUBROf8KLS-26">
          <mxGeometry relative="1" as="geometry" />
        </mxCell>
        <mxCell id="Bpl0cMvDk8CUBROf8KLS-38" value="&lt;b style=&quot;font-size: 21px&quot;&gt;key&lt;/b&gt;" style="shape=ext;double=1;rounded=1;whiteSpace=wrap;html=1;shadow=0;glass=0;sketch=1;disableMultiStroke=1;disableMultiStrokeFill=0;treeFolding=0;treeMoving=0;movableLabel=0;arcSize=41;portConstraintRotation=0;fixDash=0;autosize=0;dropTarget=0;fillColor=#dae8fc;strokeColor=#6c8ebf;" vertex="1" parent="1">
          <mxGeometry x="788.75" y="2059.5" width="80.5" height="63" as="geometry" />
        </mxCell>
        <mxCell id="Bpl0cMvDk8CUBROf8KLS-39" value="&lt;b style=&quot;font-size: 21px&quot;&gt;value&lt;/b&gt;" style="shape=ext;double=1;rounded=1;whiteSpace=wrap;html=1;shadow=0;glass=0;sketch=1;disableMultiStroke=1;disableMultiStrokeFill=0;treeFolding=0;treeMoving=0;movableLabel=0;arcSize=41;portConstraintRotation=0;fixDash=0;autosize=0;dropTarget=0;fillColor=#dae8fc;strokeColor=#6c8ebf;" vertex="1" parent="1">
          <mxGeometry x="785.25" y="2142.5" width="87.5" height="64" as="geometry" />
        </mxCell>
        <mxCell id="Bpl0cMvDk8CUBROf8KLS-40" value="&lt;font size=&quot;1&quot;&gt;&lt;b style=&quot;font-size: 23px&quot;&gt;Entry&lt;/b&gt;&lt;/font&gt;" style="text;html=1;align=center;verticalAlign=middle;resizable=0;points=[];autosize=1;fontColor=#CC0000;" vertex="1" parent="1">
          <mxGeometry x="794.5" y="2233" width="69" height="22" as="geometry" />
        </mxCell>
        <mxCell id="Bpl0cMvDk8CUBROf8KLS-41" style="edgeStyle=none;rounded=0;orthogonalLoop=1;jettySize=auto;html=1;exitX=1;exitY=0.5;exitDx=0;exitDy=0;strokeWidth=3;fontSize=14;fontColor=#CC0000;" edge="1" parent="1" source="Bpl0cMvDk8CUBROf8KLS-24" target="Bpl0cMvDk8CUBROf8KLS-24">
          <mxGeometry relative="1" as="geometry" />
        </mxCell>
        <mxCell id="Bpl0cMvDk8CUBROf8KLS-43" value="&lt;span style=&quot;font-size: 23px&quot;&gt;&lt;b&gt;强引用&lt;/b&gt;&lt;/span&gt;" style="text;html=1;align=center;verticalAlign=middle;resizable=0;points=[];autosize=1;fontColor=#CC0000;" vertex="1" parent="1">
          <mxGeometry x="611.5" y="1624" width="79" height="22" as="geometry" />
        </mxCell>
        <mxCell id="Bpl0cMvDk8CUBROf8KLS-44" value="&lt;font size=&quot;1&quot;&gt;&lt;b style=&quot;font-size: 23px&quot;&gt;弱引用&lt;/b&gt;&lt;/font&gt;" style="text;html=1;align=center;verticalAlign=middle;resizable=0;points=[];autosize=1;fontColor=#CC0000;" vertex="1" parent="1">
          <mxGeometry x="619" y="2019" width="79" height="22" as="geometry" />
        </mxCell>
      </root>
    </mxGraphModel>
  </diagram>
</mxfile>
